M48
; DRILL file {KiCad (5.1.2-1)-1} date воскресенье, 04 июля 2021 г., 20:57:08
; FORMAT={3:3/ absolute / metric / keep zeros}
; #@! TF.CreationDate,2021-07-04T20:57:08+03:00
; #@! TF.GenerationSoftware,Kicad,Pcbnew,(5.1.2-1)-1
; #@! TF.FileFunction,Plated,1,2,PTH
FMAT,2
METRIC
T1C0.400
T2C1.000
T3C1.200
T4C3.400
%
G90
G05
T1
X076750Y-053000
X076750Y-054250
X078250Y-053000
X078250Y-054250
X080250Y-071250
X080250Y-073250
X081500Y-071250
X081500Y-073250
X084000Y-052250
X084250Y-058250
X086500Y-054750
X086750Y-057500
X086750Y-073250
X092000Y-062000
X092000Y-068750
X096000Y-062000
X096000Y-064250
X097750Y-059500
X100250Y-056750
X104500Y-059500
X105250Y-071500
X113250Y-062250
T2
X103750Y-056750
X113250Y-056750
X103750Y-053500
X113250Y-053500
X081000Y-053500
X081000Y-063000
T3
X077500Y-057000
X077500Y-059540
X077500Y-062080
X077500Y-064620
X077500Y-067160
X077500Y-069700
X077500Y-072240
X122500Y-059500
X122500Y-062040
X122500Y-064580
X122500Y-067120
X122500Y-069660
X122500Y-072200
T4
X119000Y-054000
T0
M30
