G04 #@! TF.GenerationSoftware,KiCad,Pcbnew,(5.1.2-1)-1*
G04 #@! TF.CreationDate,2021-07-04T20:57:03+03:00*
G04 #@! TF.ProjectId,OEP-2,4f45502d-322e-46b6-9963-61645f706362,rev?*
G04 #@! TF.SameCoordinates,Original*
G04 #@! TF.FileFunction,Copper,L2,Bot*
G04 #@! TF.FilePolarity,Positive*
%FSLAX46Y46*%
G04 Gerber Fmt 4.6, Leading zero omitted, Abs format (unit mm)*
G04 Created by KiCad (PCBNEW (5.1.2-1)-1) date 2021-07-04 20:57:03*
%MOMM*%
%LPD*%
G04 APERTURE LIST*
%ADD10R,1.700000X1.700000*%
%ADD11C,1.700000*%
%ADD12R,2.000000X2.000000*%
%ADD13C,2.000000*%
%ADD14C,7.000000*%
%ADD15C,0.800000*%
%ADD16C,0.500000*%
%ADD17C,0.250000*%
%ADD18C,0.200000*%
G04 APERTURE END LIST*
D10*
X103750000Y-56750000D03*
D11*
X113250000Y-56750000D03*
D10*
X103750000Y-53500000D03*
D11*
X113250000Y-53500000D03*
D10*
X81000000Y-63000000D03*
D11*
X81000000Y-53500000D03*
D12*
X122500000Y-72200000D03*
X122500000Y-64580000D03*
X122500000Y-69660000D03*
X122500000Y-62040000D03*
X122500000Y-67120000D03*
D13*
X122500000Y-59500000D03*
D12*
X77500000Y-69700000D03*
X77500000Y-62080000D03*
X77500000Y-67160000D03*
X77500000Y-59540000D03*
X77500000Y-64620000D03*
D13*
X77500000Y-57000000D03*
D12*
X77500000Y-72240000D03*
D14*
X119000000Y-54000000D03*
D15*
X113250000Y-62250000D03*
X80250000Y-71250000D03*
X80250000Y-73250000D03*
X81500000Y-71250000D03*
X81500000Y-73250000D03*
X76750000Y-54250000D03*
X78250000Y-54250000D03*
X78250000Y-53000000D03*
X76750000Y-53000000D03*
X105250000Y-71500000D03*
X86750000Y-73250000D03*
X86750000Y-57500000D03*
X104500000Y-59500000D03*
X84250000Y-58250000D03*
X97750000Y-59500000D03*
X96000000Y-64250000D03*
X96000000Y-62000000D03*
X100250000Y-56750000D03*
X92000000Y-62000000D03*
X92000000Y-68750000D03*
X84000000Y-52250000D03*
X86500000Y-54750000D03*
D16*
X77500000Y-72240000D02*
X79990000Y-72240000D01*
D17*
X115750000Y-58500000D02*
X109000000Y-58500000D01*
X122500000Y-62040000D02*
X121210000Y-62040000D01*
X120000000Y-62750000D02*
X115750000Y-58500000D01*
X121210000Y-62040000D02*
X120500000Y-62750000D01*
X120500000Y-62750000D02*
X120000000Y-62750000D01*
X103750000Y-53500000D02*
X103750000Y-54750000D01*
X104000000Y-55000000D02*
X105500000Y-55000000D01*
X103750000Y-54750000D02*
X104000000Y-55000000D01*
X109000000Y-58500000D02*
X105500000Y-55000000D01*
X96000000Y-64250000D02*
X96000000Y-62000000D01*
X103750000Y-56750000D02*
X103750000Y-55750000D01*
X103750000Y-55750000D02*
X104000000Y-55500000D01*
X104000000Y-55500000D02*
X105363590Y-55500000D01*
X105363590Y-55500000D02*
X108863590Y-59000000D01*
X108863590Y-59000000D02*
X115500000Y-59000000D01*
X121080000Y-64580000D02*
X120750000Y-64250000D01*
X122500000Y-64580000D02*
X121080000Y-64580000D01*
X120750000Y-64250000D02*
X121000000Y-64500000D01*
X115500000Y-59000000D02*
X120750000Y-64250000D01*
X103750000Y-56750000D02*
X100250000Y-56750000D01*
X92000000Y-62000000D02*
X92000000Y-66500000D01*
X92000000Y-66500000D02*
X92000000Y-68750000D01*
X84000000Y-52250000D02*
X86500000Y-54750000D01*
D18*
G36*
X115815322Y-51386402D02*
G01*
X115366627Y-52057922D01*
X115057561Y-52804074D01*
X114900000Y-53596185D01*
X114900000Y-54403815D01*
X115057561Y-55195926D01*
X115366627Y-55942078D01*
X115815322Y-56613598D01*
X116386402Y-57184678D01*
X117057922Y-57633373D01*
X117804074Y-57942439D01*
X118596185Y-58100000D01*
X119403815Y-58100000D01*
X120195926Y-57942439D01*
X120942078Y-57633373D01*
X121613598Y-57184678D01*
X122184678Y-56613598D01*
X122633373Y-55942078D01*
X122942439Y-55195926D01*
X123100000Y-54403815D01*
X123100000Y-53596185D01*
X122942439Y-52804074D01*
X122633373Y-52057922D01*
X122184678Y-51386402D01*
X121898276Y-51100000D01*
X123900000Y-51100000D01*
X123900000Y-58715324D01*
X123742801Y-58480059D01*
X123519941Y-58257199D01*
X123257884Y-58082098D01*
X122966703Y-57961487D01*
X122657586Y-57900000D01*
X122342414Y-57900000D01*
X122033297Y-57961487D01*
X121742116Y-58082098D01*
X121480059Y-58257199D01*
X121257199Y-58480059D01*
X121082098Y-58742116D01*
X120961487Y-59033297D01*
X120900000Y-59342414D01*
X120900000Y-59657586D01*
X120961487Y-59966703D01*
X121082098Y-60257884D01*
X121242185Y-60497472D01*
X121165045Y-60538704D01*
X121073683Y-60613683D01*
X120998704Y-60705045D01*
X120942990Y-60809279D01*
X120908682Y-60922379D01*
X120897097Y-61040000D01*
X120897097Y-61385182D01*
X120805263Y-61434269D01*
X120722525Y-61502170D01*
X120722523Y-61502172D01*
X120694868Y-61524868D01*
X120672172Y-61552523D01*
X120250000Y-61974695D01*
X116287832Y-58012528D01*
X116265132Y-57984868D01*
X116154737Y-57894269D01*
X116028788Y-57826947D01*
X115892125Y-57785491D01*
X115785607Y-57775000D01*
X115785597Y-57775000D01*
X115750000Y-57771494D01*
X115714403Y-57775000D01*
X114275610Y-57775000D01*
X114376289Y-57674321D01*
X114534973Y-57436833D01*
X114644277Y-57172949D01*
X114700000Y-56892813D01*
X114700000Y-56607187D01*
X114644277Y-56327051D01*
X114534973Y-56063167D01*
X114376289Y-55825679D01*
X114174321Y-55623711D01*
X113936833Y-55465027D01*
X113672949Y-55355723D01*
X113392813Y-55300000D01*
X113107187Y-55300000D01*
X112827051Y-55355723D01*
X112563167Y-55465027D01*
X112325679Y-55623711D01*
X112123711Y-55825679D01*
X111965027Y-56063167D01*
X111855723Y-56327051D01*
X111800000Y-56607187D01*
X111800000Y-56892813D01*
X111855723Y-57172949D01*
X111965027Y-57436833D01*
X112123711Y-57674321D01*
X112224390Y-57775000D01*
X109300305Y-57775000D01*
X106037830Y-54512526D01*
X106015132Y-54484868D01*
X105904737Y-54394269D01*
X105778788Y-54326947D01*
X105642125Y-54285491D01*
X105535607Y-54275000D01*
X105535597Y-54275000D01*
X105500000Y-54271494D01*
X105464403Y-54275000D01*
X105202903Y-54275000D01*
X105202903Y-53357187D01*
X111800000Y-53357187D01*
X111800000Y-53642813D01*
X111855723Y-53922949D01*
X111965027Y-54186833D01*
X112123711Y-54424321D01*
X112325679Y-54626289D01*
X112563167Y-54784973D01*
X112827051Y-54894277D01*
X113107187Y-54950000D01*
X113392813Y-54950000D01*
X113672949Y-54894277D01*
X113936833Y-54784973D01*
X114174321Y-54626289D01*
X114376289Y-54424321D01*
X114534973Y-54186833D01*
X114644277Y-53922949D01*
X114700000Y-53642813D01*
X114700000Y-53357187D01*
X114644277Y-53077051D01*
X114534973Y-52813167D01*
X114376289Y-52575679D01*
X114174321Y-52373711D01*
X113936833Y-52215027D01*
X113672949Y-52105723D01*
X113392813Y-52050000D01*
X113107187Y-52050000D01*
X112827051Y-52105723D01*
X112563167Y-52215027D01*
X112325679Y-52373711D01*
X112123711Y-52575679D01*
X111965027Y-52813167D01*
X111855723Y-53077051D01*
X111800000Y-53357187D01*
X105202903Y-53357187D01*
X105202903Y-52650000D01*
X105191318Y-52532379D01*
X105157010Y-52419279D01*
X105101296Y-52315045D01*
X105026317Y-52223683D01*
X104934955Y-52148704D01*
X104830721Y-52092990D01*
X104717621Y-52058682D01*
X104600000Y-52047097D01*
X102900000Y-52047097D01*
X102782379Y-52058682D01*
X102669279Y-52092990D01*
X102565045Y-52148704D01*
X102473683Y-52223683D01*
X102398704Y-52315045D01*
X102342990Y-52419279D01*
X102308682Y-52532379D01*
X102297097Y-52650000D01*
X102297097Y-54350000D01*
X102308682Y-54467621D01*
X102342990Y-54580721D01*
X102398704Y-54684955D01*
X102473683Y-54776317D01*
X102565045Y-54851296D01*
X102669279Y-54907010D01*
X102782379Y-54941318D01*
X102900000Y-54952903D01*
X103053929Y-54952903D01*
X103076947Y-55028787D01*
X103144269Y-55154736D01*
X103212170Y-55237474D01*
X103212173Y-55237477D01*
X103222450Y-55250000D01*
X103212173Y-55262523D01*
X103212170Y-55262526D01*
X103183798Y-55297097D01*
X102900000Y-55297097D01*
X102782379Y-55308682D01*
X102669279Y-55342990D01*
X102565045Y-55398704D01*
X102473683Y-55473683D01*
X102398704Y-55565045D01*
X102342990Y-55669279D01*
X102308682Y-55782379D01*
X102297097Y-55900000D01*
X102297097Y-56025000D01*
X100939214Y-56025000D01*
X100887463Y-55973249D01*
X100723678Y-55863811D01*
X100541689Y-55788429D01*
X100348491Y-55750000D01*
X100151509Y-55750000D01*
X99958311Y-55788429D01*
X99776322Y-55863811D01*
X99612537Y-55973249D01*
X99473249Y-56112537D01*
X99363811Y-56276322D01*
X99288429Y-56458311D01*
X99250000Y-56651509D01*
X99250000Y-56848491D01*
X99288429Y-57041689D01*
X99363811Y-57223678D01*
X99473249Y-57387463D01*
X99612537Y-57526751D01*
X99776322Y-57636189D01*
X99958311Y-57711571D01*
X100151509Y-57750000D01*
X100348491Y-57750000D01*
X100541689Y-57711571D01*
X100723678Y-57636189D01*
X100887463Y-57526751D01*
X100939214Y-57475000D01*
X102297097Y-57475000D01*
X102297097Y-57600000D01*
X102308682Y-57717621D01*
X102342990Y-57830721D01*
X102398704Y-57934955D01*
X102473683Y-58026317D01*
X102565045Y-58101296D01*
X102669279Y-58157010D01*
X102782379Y-58191318D01*
X102900000Y-58202903D01*
X104600000Y-58202903D01*
X104717621Y-58191318D01*
X104830721Y-58157010D01*
X104934955Y-58101296D01*
X105026317Y-58026317D01*
X105101296Y-57934955D01*
X105157010Y-57830721D01*
X105191318Y-57717621D01*
X105202903Y-57600000D01*
X105202903Y-56364617D01*
X108325762Y-59487477D01*
X108348458Y-59515132D01*
X108376113Y-59537828D01*
X108376115Y-59537830D01*
X108458853Y-59605731D01*
X108584802Y-59673053D01*
X108721465Y-59714509D01*
X108827983Y-59725000D01*
X108827992Y-59725000D01*
X108863589Y-59728506D01*
X108899186Y-59725000D01*
X115199696Y-59725000D01*
X120262525Y-64787830D01*
X120262531Y-64787835D01*
X120542168Y-65067472D01*
X120564868Y-65095132D01*
X120675263Y-65185731D01*
X120801212Y-65253053D01*
X120897097Y-65282139D01*
X120897097Y-65580000D01*
X120908682Y-65697621D01*
X120942990Y-65810721D01*
X120963985Y-65850000D01*
X120942990Y-65889279D01*
X120908682Y-66002379D01*
X120897097Y-66120000D01*
X120897097Y-68120000D01*
X120908682Y-68237621D01*
X120942990Y-68350721D01*
X120963985Y-68390000D01*
X120942990Y-68429279D01*
X120908682Y-68542379D01*
X120897097Y-68660000D01*
X120897097Y-70660000D01*
X120908682Y-70777621D01*
X120942990Y-70890721D01*
X120963985Y-70930000D01*
X120942990Y-70969279D01*
X120908682Y-71082379D01*
X120897097Y-71200000D01*
X120897097Y-73200000D01*
X120908682Y-73317621D01*
X120942990Y-73430721D01*
X120998704Y-73534955D01*
X121073683Y-73626317D01*
X121165045Y-73701296D01*
X121269279Y-73757010D01*
X121382379Y-73791318D01*
X121500000Y-73802903D01*
X123500000Y-73802903D01*
X123617621Y-73791318D01*
X123730721Y-73757010D01*
X123834955Y-73701296D01*
X123900000Y-73647915D01*
X123900000Y-73900000D01*
X79381360Y-73900000D01*
X79419042Y-73854084D01*
X79521184Y-73662988D01*
X79584084Y-73455638D01*
X79605322Y-73240000D01*
X79600000Y-72540000D01*
X79325000Y-72265000D01*
X77525000Y-72265000D01*
X77525000Y-72285000D01*
X77475000Y-72285000D01*
X77475000Y-72265000D01*
X77455000Y-72265000D01*
X77455000Y-72215000D01*
X77475000Y-72215000D01*
X77475000Y-72195000D01*
X77525000Y-72195000D01*
X77525000Y-72215000D01*
X79325000Y-72215000D01*
X79600000Y-71940000D01*
X79605322Y-71240000D01*
X79584084Y-71024362D01*
X79521184Y-70817012D01*
X79419042Y-70625916D01*
X79281581Y-70458419D01*
X79114084Y-70320958D01*
X79102903Y-70314982D01*
X79102903Y-68700000D01*
X79091318Y-68582379D01*
X79057010Y-68469279D01*
X79036015Y-68430000D01*
X79057010Y-68390721D01*
X79091318Y-68277621D01*
X79102903Y-68160000D01*
X79102903Y-66160000D01*
X79091318Y-66042379D01*
X79057010Y-65929279D01*
X79036015Y-65890000D01*
X79057010Y-65850721D01*
X79091318Y-65737621D01*
X79102903Y-65620000D01*
X79102903Y-63620000D01*
X79091318Y-63502379D01*
X79057010Y-63389279D01*
X79036015Y-63350000D01*
X79057010Y-63310721D01*
X79091318Y-63197621D01*
X79102903Y-63080000D01*
X79102903Y-62150000D01*
X79547097Y-62150000D01*
X79547097Y-63850000D01*
X79558682Y-63967621D01*
X79592990Y-64080721D01*
X79648704Y-64184955D01*
X79723683Y-64276317D01*
X79815045Y-64351296D01*
X79919279Y-64407010D01*
X80032379Y-64441318D01*
X80150000Y-64452903D01*
X81850000Y-64452903D01*
X81967621Y-64441318D01*
X82080721Y-64407010D01*
X82184955Y-64351296D01*
X82276317Y-64276317D01*
X82351296Y-64184955D01*
X82407010Y-64080721D01*
X82441318Y-63967621D01*
X82452903Y-63850000D01*
X82452903Y-62150000D01*
X82441318Y-62032379D01*
X82407010Y-61919279D01*
X82397512Y-61901509D01*
X91000000Y-61901509D01*
X91000000Y-62098491D01*
X91038429Y-62291689D01*
X91113811Y-62473678D01*
X91223249Y-62637463D01*
X91275000Y-62689214D01*
X91275001Y-66464384D01*
X91275000Y-66464394D01*
X91275001Y-68060785D01*
X91223249Y-68112537D01*
X91113811Y-68276322D01*
X91038429Y-68458311D01*
X91000000Y-68651509D01*
X91000000Y-68848491D01*
X91038429Y-69041689D01*
X91113811Y-69223678D01*
X91223249Y-69387463D01*
X91362537Y-69526751D01*
X91526322Y-69636189D01*
X91708311Y-69711571D01*
X91901509Y-69750000D01*
X92098491Y-69750000D01*
X92291689Y-69711571D01*
X92473678Y-69636189D01*
X92637463Y-69526751D01*
X92776751Y-69387463D01*
X92886189Y-69223678D01*
X92961571Y-69041689D01*
X93000000Y-68848491D01*
X93000000Y-68651509D01*
X92961571Y-68458311D01*
X92886189Y-68276322D01*
X92776751Y-68112537D01*
X92725000Y-68060786D01*
X92725000Y-62689214D01*
X92776751Y-62637463D01*
X92886189Y-62473678D01*
X92961571Y-62291689D01*
X93000000Y-62098491D01*
X93000000Y-61901509D01*
X95000000Y-61901509D01*
X95000000Y-62098491D01*
X95038429Y-62291689D01*
X95113811Y-62473678D01*
X95223249Y-62637463D01*
X95275001Y-62689215D01*
X95275000Y-63560786D01*
X95223249Y-63612537D01*
X95113811Y-63776322D01*
X95038429Y-63958311D01*
X95000000Y-64151509D01*
X95000000Y-64348491D01*
X95038429Y-64541689D01*
X95113811Y-64723678D01*
X95223249Y-64887463D01*
X95362537Y-65026751D01*
X95526322Y-65136189D01*
X95708311Y-65211571D01*
X95901509Y-65250000D01*
X96098491Y-65250000D01*
X96291689Y-65211571D01*
X96473678Y-65136189D01*
X96637463Y-65026751D01*
X96776751Y-64887463D01*
X96886189Y-64723678D01*
X96961571Y-64541689D01*
X97000000Y-64348491D01*
X97000000Y-64151509D01*
X96961571Y-63958311D01*
X96886189Y-63776322D01*
X96776751Y-63612537D01*
X96725000Y-63560786D01*
X96725000Y-62689214D01*
X96776751Y-62637463D01*
X96886189Y-62473678D01*
X96961571Y-62291689D01*
X97000000Y-62098491D01*
X97000000Y-61901509D01*
X96961571Y-61708311D01*
X96886189Y-61526322D01*
X96776751Y-61362537D01*
X96637463Y-61223249D01*
X96473678Y-61113811D01*
X96291689Y-61038429D01*
X96098491Y-61000000D01*
X95901509Y-61000000D01*
X95708311Y-61038429D01*
X95526322Y-61113811D01*
X95362537Y-61223249D01*
X95223249Y-61362537D01*
X95113811Y-61526322D01*
X95038429Y-61708311D01*
X95000000Y-61901509D01*
X93000000Y-61901509D01*
X92961571Y-61708311D01*
X92886189Y-61526322D01*
X92776751Y-61362537D01*
X92637463Y-61223249D01*
X92473678Y-61113811D01*
X92291689Y-61038429D01*
X92098491Y-61000000D01*
X91901509Y-61000000D01*
X91708311Y-61038429D01*
X91526322Y-61113811D01*
X91362537Y-61223249D01*
X91223249Y-61362537D01*
X91113811Y-61526322D01*
X91038429Y-61708311D01*
X91000000Y-61901509D01*
X82397512Y-61901509D01*
X82351296Y-61815045D01*
X82276317Y-61723683D01*
X82184955Y-61648704D01*
X82080721Y-61592990D01*
X81967621Y-61558682D01*
X81850000Y-61547097D01*
X80150000Y-61547097D01*
X80032379Y-61558682D01*
X79919279Y-61592990D01*
X79815045Y-61648704D01*
X79723683Y-61723683D01*
X79648704Y-61815045D01*
X79592990Y-61919279D01*
X79558682Y-62032379D01*
X79547097Y-62150000D01*
X79102903Y-62150000D01*
X79102903Y-61080000D01*
X79091318Y-60962379D01*
X79057010Y-60849279D01*
X79036015Y-60810000D01*
X79057010Y-60770721D01*
X79091318Y-60657621D01*
X79102903Y-60540000D01*
X79102903Y-58540000D01*
X79091318Y-58422379D01*
X79057010Y-58309279D01*
X79024792Y-58249003D01*
X79221731Y-58220009D01*
X79426660Y-57860674D01*
X79557549Y-57468263D01*
X79609368Y-57057858D01*
X79580125Y-56645228D01*
X79470943Y-56246233D01*
X79286020Y-55876204D01*
X79221731Y-55779991D01*
X78815212Y-55720143D01*
X77535355Y-57000000D01*
X77549498Y-57014143D01*
X77514143Y-57049498D01*
X77500000Y-57035355D01*
X77485858Y-57049498D01*
X77450503Y-57014143D01*
X77464645Y-57000000D01*
X77450503Y-56985858D01*
X77485858Y-56950503D01*
X77500000Y-56964645D01*
X78779857Y-55684788D01*
X78720009Y-55278269D01*
X78360674Y-55073340D01*
X77968263Y-54942451D01*
X77557858Y-54890632D01*
X77145228Y-54919875D01*
X76746233Y-55029057D01*
X76376204Y-55213980D01*
X76279991Y-55278269D01*
X76220143Y-55684785D01*
X76100000Y-55564642D01*
X76100000Y-54708622D01*
X79826734Y-54708622D01*
X79868592Y-55099782D01*
X80202434Y-55289770D01*
X80566925Y-55410977D01*
X80948060Y-55458747D01*
X81331190Y-55431243D01*
X81701593Y-55329522D01*
X82045035Y-55157494D01*
X82131408Y-55099782D01*
X82173266Y-54708622D01*
X81000000Y-53535355D01*
X79826734Y-54708622D01*
X76100000Y-54708622D01*
X76100000Y-53448060D01*
X79041253Y-53448060D01*
X79068757Y-53831190D01*
X79170478Y-54201593D01*
X79342506Y-54545035D01*
X79400218Y-54631408D01*
X79791378Y-54673266D01*
X80964645Y-53500000D01*
X81035355Y-53500000D01*
X82208622Y-54673266D01*
X82599782Y-54631408D01*
X82789770Y-54297566D01*
X82910977Y-53933075D01*
X82958747Y-53551940D01*
X82931243Y-53168810D01*
X82829522Y-52798407D01*
X82657494Y-52454965D01*
X82599782Y-52368592D01*
X82208622Y-52326734D01*
X81035355Y-53500000D01*
X80964645Y-53500000D01*
X79791378Y-52326734D01*
X79400218Y-52368592D01*
X79210230Y-52702434D01*
X79089023Y-53066925D01*
X79041253Y-53448060D01*
X76100000Y-53448060D01*
X76100000Y-52291378D01*
X79826734Y-52291378D01*
X81000000Y-53464645D01*
X82173266Y-52291378D01*
X82158299Y-52151509D01*
X83000000Y-52151509D01*
X83000000Y-52348491D01*
X83038429Y-52541689D01*
X83113811Y-52723678D01*
X83223249Y-52887463D01*
X83362537Y-53026751D01*
X83526322Y-53136189D01*
X83708311Y-53211571D01*
X83901509Y-53250000D01*
X83974696Y-53250000D01*
X85500000Y-54775305D01*
X85500000Y-54848491D01*
X85538429Y-55041689D01*
X85613811Y-55223678D01*
X85723249Y-55387463D01*
X85862537Y-55526751D01*
X86026322Y-55636189D01*
X86208311Y-55711571D01*
X86401509Y-55750000D01*
X86598491Y-55750000D01*
X86791689Y-55711571D01*
X86973678Y-55636189D01*
X87137463Y-55526751D01*
X87276751Y-55387463D01*
X87386189Y-55223678D01*
X87461571Y-55041689D01*
X87500000Y-54848491D01*
X87500000Y-54651509D01*
X87461571Y-54458311D01*
X87386189Y-54276322D01*
X87276751Y-54112537D01*
X87137463Y-53973249D01*
X86973678Y-53863811D01*
X86791689Y-53788429D01*
X86598491Y-53750000D01*
X86525305Y-53750000D01*
X85000000Y-52224696D01*
X85000000Y-52151509D01*
X84961571Y-51958311D01*
X84886189Y-51776322D01*
X84776751Y-51612537D01*
X84637463Y-51473249D01*
X84473678Y-51363811D01*
X84291689Y-51288429D01*
X84098491Y-51250000D01*
X83901509Y-51250000D01*
X83708311Y-51288429D01*
X83526322Y-51363811D01*
X83362537Y-51473249D01*
X83223249Y-51612537D01*
X83113811Y-51776322D01*
X83038429Y-51958311D01*
X83000000Y-52151509D01*
X82158299Y-52151509D01*
X82131408Y-51900218D01*
X81797566Y-51710230D01*
X81433075Y-51589023D01*
X81051940Y-51541253D01*
X80668810Y-51568757D01*
X80298407Y-51670478D01*
X79954965Y-51842506D01*
X79868592Y-51900218D01*
X79826734Y-52291378D01*
X76100000Y-52291378D01*
X76100000Y-51100000D01*
X116101724Y-51100000D01*
X115815322Y-51386402D01*
X115815322Y-51386402D01*
G37*
X115815322Y-51386402D02*
X115366627Y-52057922D01*
X115057561Y-52804074D01*
X114900000Y-53596185D01*
X114900000Y-54403815D01*
X115057561Y-55195926D01*
X115366627Y-55942078D01*
X115815322Y-56613598D01*
X116386402Y-57184678D01*
X117057922Y-57633373D01*
X117804074Y-57942439D01*
X118596185Y-58100000D01*
X119403815Y-58100000D01*
X120195926Y-57942439D01*
X120942078Y-57633373D01*
X121613598Y-57184678D01*
X122184678Y-56613598D01*
X122633373Y-55942078D01*
X122942439Y-55195926D01*
X123100000Y-54403815D01*
X123100000Y-53596185D01*
X122942439Y-52804074D01*
X122633373Y-52057922D01*
X122184678Y-51386402D01*
X121898276Y-51100000D01*
X123900000Y-51100000D01*
X123900000Y-58715324D01*
X123742801Y-58480059D01*
X123519941Y-58257199D01*
X123257884Y-58082098D01*
X122966703Y-57961487D01*
X122657586Y-57900000D01*
X122342414Y-57900000D01*
X122033297Y-57961487D01*
X121742116Y-58082098D01*
X121480059Y-58257199D01*
X121257199Y-58480059D01*
X121082098Y-58742116D01*
X120961487Y-59033297D01*
X120900000Y-59342414D01*
X120900000Y-59657586D01*
X120961487Y-59966703D01*
X121082098Y-60257884D01*
X121242185Y-60497472D01*
X121165045Y-60538704D01*
X121073683Y-60613683D01*
X120998704Y-60705045D01*
X120942990Y-60809279D01*
X120908682Y-60922379D01*
X120897097Y-61040000D01*
X120897097Y-61385182D01*
X120805263Y-61434269D01*
X120722525Y-61502170D01*
X120722523Y-61502172D01*
X120694868Y-61524868D01*
X120672172Y-61552523D01*
X120250000Y-61974695D01*
X116287832Y-58012528D01*
X116265132Y-57984868D01*
X116154737Y-57894269D01*
X116028788Y-57826947D01*
X115892125Y-57785491D01*
X115785607Y-57775000D01*
X115785597Y-57775000D01*
X115750000Y-57771494D01*
X115714403Y-57775000D01*
X114275610Y-57775000D01*
X114376289Y-57674321D01*
X114534973Y-57436833D01*
X114644277Y-57172949D01*
X114700000Y-56892813D01*
X114700000Y-56607187D01*
X114644277Y-56327051D01*
X114534973Y-56063167D01*
X114376289Y-55825679D01*
X114174321Y-55623711D01*
X113936833Y-55465027D01*
X113672949Y-55355723D01*
X113392813Y-55300000D01*
X113107187Y-55300000D01*
X112827051Y-55355723D01*
X112563167Y-55465027D01*
X112325679Y-55623711D01*
X112123711Y-55825679D01*
X111965027Y-56063167D01*
X111855723Y-56327051D01*
X111800000Y-56607187D01*
X111800000Y-56892813D01*
X111855723Y-57172949D01*
X111965027Y-57436833D01*
X112123711Y-57674321D01*
X112224390Y-57775000D01*
X109300305Y-57775000D01*
X106037830Y-54512526D01*
X106015132Y-54484868D01*
X105904737Y-54394269D01*
X105778788Y-54326947D01*
X105642125Y-54285491D01*
X105535607Y-54275000D01*
X105535597Y-54275000D01*
X105500000Y-54271494D01*
X105464403Y-54275000D01*
X105202903Y-54275000D01*
X105202903Y-53357187D01*
X111800000Y-53357187D01*
X111800000Y-53642813D01*
X111855723Y-53922949D01*
X111965027Y-54186833D01*
X112123711Y-54424321D01*
X112325679Y-54626289D01*
X112563167Y-54784973D01*
X112827051Y-54894277D01*
X113107187Y-54950000D01*
X113392813Y-54950000D01*
X113672949Y-54894277D01*
X113936833Y-54784973D01*
X114174321Y-54626289D01*
X114376289Y-54424321D01*
X114534973Y-54186833D01*
X114644277Y-53922949D01*
X114700000Y-53642813D01*
X114700000Y-53357187D01*
X114644277Y-53077051D01*
X114534973Y-52813167D01*
X114376289Y-52575679D01*
X114174321Y-52373711D01*
X113936833Y-52215027D01*
X113672949Y-52105723D01*
X113392813Y-52050000D01*
X113107187Y-52050000D01*
X112827051Y-52105723D01*
X112563167Y-52215027D01*
X112325679Y-52373711D01*
X112123711Y-52575679D01*
X111965027Y-52813167D01*
X111855723Y-53077051D01*
X111800000Y-53357187D01*
X105202903Y-53357187D01*
X105202903Y-52650000D01*
X105191318Y-52532379D01*
X105157010Y-52419279D01*
X105101296Y-52315045D01*
X105026317Y-52223683D01*
X104934955Y-52148704D01*
X104830721Y-52092990D01*
X104717621Y-52058682D01*
X104600000Y-52047097D01*
X102900000Y-52047097D01*
X102782379Y-52058682D01*
X102669279Y-52092990D01*
X102565045Y-52148704D01*
X102473683Y-52223683D01*
X102398704Y-52315045D01*
X102342990Y-52419279D01*
X102308682Y-52532379D01*
X102297097Y-52650000D01*
X102297097Y-54350000D01*
X102308682Y-54467621D01*
X102342990Y-54580721D01*
X102398704Y-54684955D01*
X102473683Y-54776317D01*
X102565045Y-54851296D01*
X102669279Y-54907010D01*
X102782379Y-54941318D01*
X102900000Y-54952903D01*
X103053929Y-54952903D01*
X103076947Y-55028787D01*
X103144269Y-55154736D01*
X103212170Y-55237474D01*
X103212173Y-55237477D01*
X103222450Y-55250000D01*
X103212173Y-55262523D01*
X103212170Y-55262526D01*
X103183798Y-55297097D01*
X102900000Y-55297097D01*
X102782379Y-55308682D01*
X102669279Y-55342990D01*
X102565045Y-55398704D01*
X102473683Y-55473683D01*
X102398704Y-55565045D01*
X102342990Y-55669279D01*
X102308682Y-55782379D01*
X102297097Y-55900000D01*
X102297097Y-56025000D01*
X100939214Y-56025000D01*
X100887463Y-55973249D01*
X100723678Y-55863811D01*
X100541689Y-55788429D01*
X100348491Y-55750000D01*
X100151509Y-55750000D01*
X99958311Y-55788429D01*
X99776322Y-55863811D01*
X99612537Y-55973249D01*
X99473249Y-56112537D01*
X99363811Y-56276322D01*
X99288429Y-56458311D01*
X99250000Y-56651509D01*
X99250000Y-56848491D01*
X99288429Y-57041689D01*
X99363811Y-57223678D01*
X99473249Y-57387463D01*
X99612537Y-57526751D01*
X99776322Y-57636189D01*
X99958311Y-57711571D01*
X100151509Y-57750000D01*
X100348491Y-57750000D01*
X100541689Y-57711571D01*
X100723678Y-57636189D01*
X100887463Y-57526751D01*
X100939214Y-57475000D01*
X102297097Y-57475000D01*
X102297097Y-57600000D01*
X102308682Y-57717621D01*
X102342990Y-57830721D01*
X102398704Y-57934955D01*
X102473683Y-58026317D01*
X102565045Y-58101296D01*
X102669279Y-58157010D01*
X102782379Y-58191318D01*
X102900000Y-58202903D01*
X104600000Y-58202903D01*
X104717621Y-58191318D01*
X104830721Y-58157010D01*
X104934955Y-58101296D01*
X105026317Y-58026317D01*
X105101296Y-57934955D01*
X105157010Y-57830721D01*
X105191318Y-57717621D01*
X105202903Y-57600000D01*
X105202903Y-56364617D01*
X108325762Y-59487477D01*
X108348458Y-59515132D01*
X108376113Y-59537828D01*
X108376115Y-59537830D01*
X108458853Y-59605731D01*
X108584802Y-59673053D01*
X108721465Y-59714509D01*
X108827983Y-59725000D01*
X108827992Y-59725000D01*
X108863589Y-59728506D01*
X108899186Y-59725000D01*
X115199696Y-59725000D01*
X120262525Y-64787830D01*
X120262531Y-64787835D01*
X120542168Y-65067472D01*
X120564868Y-65095132D01*
X120675263Y-65185731D01*
X120801212Y-65253053D01*
X120897097Y-65282139D01*
X120897097Y-65580000D01*
X120908682Y-65697621D01*
X120942990Y-65810721D01*
X120963985Y-65850000D01*
X120942990Y-65889279D01*
X120908682Y-66002379D01*
X120897097Y-66120000D01*
X120897097Y-68120000D01*
X120908682Y-68237621D01*
X120942990Y-68350721D01*
X120963985Y-68390000D01*
X120942990Y-68429279D01*
X120908682Y-68542379D01*
X120897097Y-68660000D01*
X120897097Y-70660000D01*
X120908682Y-70777621D01*
X120942990Y-70890721D01*
X120963985Y-70930000D01*
X120942990Y-70969279D01*
X120908682Y-71082379D01*
X120897097Y-71200000D01*
X120897097Y-73200000D01*
X120908682Y-73317621D01*
X120942990Y-73430721D01*
X120998704Y-73534955D01*
X121073683Y-73626317D01*
X121165045Y-73701296D01*
X121269279Y-73757010D01*
X121382379Y-73791318D01*
X121500000Y-73802903D01*
X123500000Y-73802903D01*
X123617621Y-73791318D01*
X123730721Y-73757010D01*
X123834955Y-73701296D01*
X123900000Y-73647915D01*
X123900000Y-73900000D01*
X79381360Y-73900000D01*
X79419042Y-73854084D01*
X79521184Y-73662988D01*
X79584084Y-73455638D01*
X79605322Y-73240000D01*
X79600000Y-72540000D01*
X79325000Y-72265000D01*
X77525000Y-72265000D01*
X77525000Y-72285000D01*
X77475000Y-72285000D01*
X77475000Y-72265000D01*
X77455000Y-72265000D01*
X77455000Y-72215000D01*
X77475000Y-72215000D01*
X77475000Y-72195000D01*
X77525000Y-72195000D01*
X77525000Y-72215000D01*
X79325000Y-72215000D01*
X79600000Y-71940000D01*
X79605322Y-71240000D01*
X79584084Y-71024362D01*
X79521184Y-70817012D01*
X79419042Y-70625916D01*
X79281581Y-70458419D01*
X79114084Y-70320958D01*
X79102903Y-70314982D01*
X79102903Y-68700000D01*
X79091318Y-68582379D01*
X79057010Y-68469279D01*
X79036015Y-68430000D01*
X79057010Y-68390721D01*
X79091318Y-68277621D01*
X79102903Y-68160000D01*
X79102903Y-66160000D01*
X79091318Y-66042379D01*
X79057010Y-65929279D01*
X79036015Y-65890000D01*
X79057010Y-65850721D01*
X79091318Y-65737621D01*
X79102903Y-65620000D01*
X79102903Y-63620000D01*
X79091318Y-63502379D01*
X79057010Y-63389279D01*
X79036015Y-63350000D01*
X79057010Y-63310721D01*
X79091318Y-63197621D01*
X79102903Y-63080000D01*
X79102903Y-62150000D01*
X79547097Y-62150000D01*
X79547097Y-63850000D01*
X79558682Y-63967621D01*
X79592990Y-64080721D01*
X79648704Y-64184955D01*
X79723683Y-64276317D01*
X79815045Y-64351296D01*
X79919279Y-64407010D01*
X80032379Y-64441318D01*
X80150000Y-64452903D01*
X81850000Y-64452903D01*
X81967621Y-64441318D01*
X82080721Y-64407010D01*
X82184955Y-64351296D01*
X82276317Y-64276317D01*
X82351296Y-64184955D01*
X82407010Y-64080721D01*
X82441318Y-63967621D01*
X82452903Y-63850000D01*
X82452903Y-62150000D01*
X82441318Y-62032379D01*
X82407010Y-61919279D01*
X82397512Y-61901509D01*
X91000000Y-61901509D01*
X91000000Y-62098491D01*
X91038429Y-62291689D01*
X91113811Y-62473678D01*
X91223249Y-62637463D01*
X91275000Y-62689214D01*
X91275001Y-66464384D01*
X91275000Y-66464394D01*
X91275001Y-68060785D01*
X91223249Y-68112537D01*
X91113811Y-68276322D01*
X91038429Y-68458311D01*
X91000000Y-68651509D01*
X91000000Y-68848491D01*
X91038429Y-69041689D01*
X91113811Y-69223678D01*
X91223249Y-69387463D01*
X91362537Y-69526751D01*
X91526322Y-69636189D01*
X91708311Y-69711571D01*
X91901509Y-69750000D01*
X92098491Y-69750000D01*
X92291689Y-69711571D01*
X92473678Y-69636189D01*
X92637463Y-69526751D01*
X92776751Y-69387463D01*
X92886189Y-69223678D01*
X92961571Y-69041689D01*
X93000000Y-68848491D01*
X93000000Y-68651509D01*
X92961571Y-68458311D01*
X92886189Y-68276322D01*
X92776751Y-68112537D01*
X92725000Y-68060786D01*
X92725000Y-62689214D01*
X92776751Y-62637463D01*
X92886189Y-62473678D01*
X92961571Y-62291689D01*
X93000000Y-62098491D01*
X93000000Y-61901509D01*
X95000000Y-61901509D01*
X95000000Y-62098491D01*
X95038429Y-62291689D01*
X95113811Y-62473678D01*
X95223249Y-62637463D01*
X95275001Y-62689215D01*
X95275000Y-63560786D01*
X95223249Y-63612537D01*
X95113811Y-63776322D01*
X95038429Y-63958311D01*
X95000000Y-64151509D01*
X95000000Y-64348491D01*
X95038429Y-64541689D01*
X95113811Y-64723678D01*
X95223249Y-64887463D01*
X95362537Y-65026751D01*
X95526322Y-65136189D01*
X95708311Y-65211571D01*
X95901509Y-65250000D01*
X96098491Y-65250000D01*
X96291689Y-65211571D01*
X96473678Y-65136189D01*
X96637463Y-65026751D01*
X96776751Y-64887463D01*
X96886189Y-64723678D01*
X96961571Y-64541689D01*
X97000000Y-64348491D01*
X97000000Y-64151509D01*
X96961571Y-63958311D01*
X96886189Y-63776322D01*
X96776751Y-63612537D01*
X96725000Y-63560786D01*
X96725000Y-62689214D01*
X96776751Y-62637463D01*
X96886189Y-62473678D01*
X96961571Y-62291689D01*
X97000000Y-62098491D01*
X97000000Y-61901509D01*
X96961571Y-61708311D01*
X96886189Y-61526322D01*
X96776751Y-61362537D01*
X96637463Y-61223249D01*
X96473678Y-61113811D01*
X96291689Y-61038429D01*
X96098491Y-61000000D01*
X95901509Y-61000000D01*
X95708311Y-61038429D01*
X95526322Y-61113811D01*
X95362537Y-61223249D01*
X95223249Y-61362537D01*
X95113811Y-61526322D01*
X95038429Y-61708311D01*
X95000000Y-61901509D01*
X93000000Y-61901509D01*
X92961571Y-61708311D01*
X92886189Y-61526322D01*
X92776751Y-61362537D01*
X92637463Y-61223249D01*
X92473678Y-61113811D01*
X92291689Y-61038429D01*
X92098491Y-61000000D01*
X91901509Y-61000000D01*
X91708311Y-61038429D01*
X91526322Y-61113811D01*
X91362537Y-61223249D01*
X91223249Y-61362537D01*
X91113811Y-61526322D01*
X91038429Y-61708311D01*
X91000000Y-61901509D01*
X82397512Y-61901509D01*
X82351296Y-61815045D01*
X82276317Y-61723683D01*
X82184955Y-61648704D01*
X82080721Y-61592990D01*
X81967621Y-61558682D01*
X81850000Y-61547097D01*
X80150000Y-61547097D01*
X80032379Y-61558682D01*
X79919279Y-61592990D01*
X79815045Y-61648704D01*
X79723683Y-61723683D01*
X79648704Y-61815045D01*
X79592990Y-61919279D01*
X79558682Y-62032379D01*
X79547097Y-62150000D01*
X79102903Y-62150000D01*
X79102903Y-61080000D01*
X79091318Y-60962379D01*
X79057010Y-60849279D01*
X79036015Y-60810000D01*
X79057010Y-60770721D01*
X79091318Y-60657621D01*
X79102903Y-60540000D01*
X79102903Y-58540000D01*
X79091318Y-58422379D01*
X79057010Y-58309279D01*
X79024792Y-58249003D01*
X79221731Y-58220009D01*
X79426660Y-57860674D01*
X79557549Y-57468263D01*
X79609368Y-57057858D01*
X79580125Y-56645228D01*
X79470943Y-56246233D01*
X79286020Y-55876204D01*
X79221731Y-55779991D01*
X78815212Y-55720143D01*
X77535355Y-57000000D01*
X77549498Y-57014143D01*
X77514143Y-57049498D01*
X77500000Y-57035355D01*
X77485858Y-57049498D01*
X77450503Y-57014143D01*
X77464645Y-57000000D01*
X77450503Y-56985858D01*
X77485858Y-56950503D01*
X77500000Y-56964645D01*
X78779857Y-55684788D01*
X78720009Y-55278269D01*
X78360674Y-55073340D01*
X77968263Y-54942451D01*
X77557858Y-54890632D01*
X77145228Y-54919875D01*
X76746233Y-55029057D01*
X76376204Y-55213980D01*
X76279991Y-55278269D01*
X76220143Y-55684785D01*
X76100000Y-55564642D01*
X76100000Y-54708622D01*
X79826734Y-54708622D01*
X79868592Y-55099782D01*
X80202434Y-55289770D01*
X80566925Y-55410977D01*
X80948060Y-55458747D01*
X81331190Y-55431243D01*
X81701593Y-55329522D01*
X82045035Y-55157494D01*
X82131408Y-55099782D01*
X82173266Y-54708622D01*
X81000000Y-53535355D01*
X79826734Y-54708622D01*
X76100000Y-54708622D01*
X76100000Y-53448060D01*
X79041253Y-53448060D01*
X79068757Y-53831190D01*
X79170478Y-54201593D01*
X79342506Y-54545035D01*
X79400218Y-54631408D01*
X79791378Y-54673266D01*
X80964645Y-53500000D01*
X81035355Y-53500000D01*
X82208622Y-54673266D01*
X82599782Y-54631408D01*
X82789770Y-54297566D01*
X82910977Y-53933075D01*
X82958747Y-53551940D01*
X82931243Y-53168810D01*
X82829522Y-52798407D01*
X82657494Y-52454965D01*
X82599782Y-52368592D01*
X82208622Y-52326734D01*
X81035355Y-53500000D01*
X80964645Y-53500000D01*
X79791378Y-52326734D01*
X79400218Y-52368592D01*
X79210230Y-52702434D01*
X79089023Y-53066925D01*
X79041253Y-53448060D01*
X76100000Y-53448060D01*
X76100000Y-52291378D01*
X79826734Y-52291378D01*
X81000000Y-53464645D01*
X82173266Y-52291378D01*
X82158299Y-52151509D01*
X83000000Y-52151509D01*
X83000000Y-52348491D01*
X83038429Y-52541689D01*
X83113811Y-52723678D01*
X83223249Y-52887463D01*
X83362537Y-53026751D01*
X83526322Y-53136189D01*
X83708311Y-53211571D01*
X83901509Y-53250000D01*
X83974696Y-53250000D01*
X85500000Y-54775305D01*
X85500000Y-54848491D01*
X85538429Y-55041689D01*
X85613811Y-55223678D01*
X85723249Y-55387463D01*
X85862537Y-55526751D01*
X86026322Y-55636189D01*
X86208311Y-55711571D01*
X86401509Y-55750000D01*
X86598491Y-55750000D01*
X86791689Y-55711571D01*
X86973678Y-55636189D01*
X87137463Y-55526751D01*
X87276751Y-55387463D01*
X87386189Y-55223678D01*
X87461571Y-55041689D01*
X87500000Y-54848491D01*
X87500000Y-54651509D01*
X87461571Y-54458311D01*
X87386189Y-54276322D01*
X87276751Y-54112537D01*
X87137463Y-53973249D01*
X86973678Y-53863811D01*
X86791689Y-53788429D01*
X86598491Y-53750000D01*
X86525305Y-53750000D01*
X85000000Y-52224696D01*
X85000000Y-52151509D01*
X84961571Y-51958311D01*
X84886189Y-51776322D01*
X84776751Y-51612537D01*
X84637463Y-51473249D01*
X84473678Y-51363811D01*
X84291689Y-51288429D01*
X84098491Y-51250000D01*
X83901509Y-51250000D01*
X83708311Y-51288429D01*
X83526322Y-51363811D01*
X83362537Y-51473249D01*
X83223249Y-51612537D01*
X83113811Y-51776322D01*
X83038429Y-51958311D01*
X83000000Y-52151509D01*
X82158299Y-52151509D01*
X82131408Y-51900218D01*
X81797566Y-51710230D01*
X81433075Y-51589023D01*
X81051940Y-51541253D01*
X80668810Y-51568757D01*
X80298407Y-51670478D01*
X79954965Y-51842506D01*
X79868592Y-51900218D01*
X79826734Y-52291378D01*
X76100000Y-52291378D01*
X76100000Y-51100000D01*
X116101724Y-51100000D01*
X115815322Y-51386402D01*
M02*
