G04 #@! TF.GenerationSoftware,KiCad,Pcbnew,(5.1.2-1)-1*
G04 #@! TF.CreationDate,2021-07-04T20:57:03+03:00*
G04 #@! TF.ProjectId,OEP-2,4f45502d-322e-46b6-9963-61645f706362,rev?*
G04 #@! TF.SameCoordinates,Original*
G04 #@! TF.FileFunction,Copper,L1,Top*
G04 #@! TF.FilePolarity,Positive*
%FSLAX46Y46*%
G04 Gerber Fmt 4.6, Leading zero omitted, Abs format (unit mm)*
G04 Created by KiCad (PCBNEW (5.1.2-1)-1) date 2021-07-04 20:57:03*
%MOMM*%
%LPD*%
G04 APERTURE LIST*
%ADD10C,0.100000*%
%ADD11C,0.200000*%
%ADD12R,1.050000X1.100000*%
%ADD13R,1.100000X1.050000*%
%ADD14C,1.500000*%
%ADD15R,1.700000X1.700000*%
%ADD16C,1.700000*%
%ADD17R,2.000000X2.000000*%
%ADD18C,2.000000*%
%ADD19R,1.000000X0.800000*%
%ADD20R,1.200000X1.500000*%
%ADD21R,1.350000X1.900000*%
%ADD22R,1.500000X1.200000*%
%ADD23R,1.000000X1.500000*%
%ADD24R,0.500000X4.500000*%
%ADD25R,0.500000X2.500000*%
%ADD26C,7.000000*%
%ADD27C,0.800000*%
%ADD28C,0.500000*%
%ADD29C,0.250000*%
G04 APERTURE END LIST*
D10*
G36*
X98500000Y-71500000D02*
G01*
X98000000Y-72000000D01*
X98000000Y-71000000D01*
X98500000Y-71500000D01*
G37*
X98500000Y-71500000D02*
X98000000Y-72000000D01*
X98000000Y-71000000D01*
X98500000Y-71500000D01*
D11*
X93357142Y-69202380D02*
X93023809Y-68726190D01*
X92785714Y-69202380D02*
X92785714Y-68202380D01*
X93166666Y-68202380D01*
X93261904Y-68250000D01*
X93309523Y-68297619D01*
X93357142Y-68392857D01*
X93357142Y-68535714D01*
X93309523Y-68630952D01*
X93261904Y-68678571D01*
X93166666Y-68726190D01*
X92785714Y-68726190D01*
X93690476Y-68202380D02*
X94357142Y-69202380D01*
X94357142Y-68202380D02*
X93690476Y-69202380D01*
X94690476Y-68297619D02*
X94738095Y-68250000D01*
X94833333Y-68202380D01*
X95071428Y-68202380D01*
X95166666Y-68250000D01*
X95214285Y-68297619D01*
X95261904Y-68392857D01*
X95261904Y-68488095D01*
X95214285Y-68630952D01*
X94642857Y-69202380D01*
X95261904Y-69202380D01*
X92761904Y-63702380D02*
X93333333Y-63702380D01*
X93047619Y-64702380D02*
X93047619Y-63702380D01*
X93571428Y-63702380D02*
X94238095Y-64702380D01*
X94238095Y-63702380D02*
X93571428Y-64702380D01*
X94571428Y-63797619D02*
X94619047Y-63750000D01*
X94714285Y-63702380D01*
X94952380Y-63702380D01*
X95047619Y-63750000D01*
X95095238Y-63797619D01*
X95142857Y-63892857D01*
X95142857Y-63988095D01*
X95095238Y-64130952D01*
X94523809Y-64702380D01*
X95142857Y-64702380D01*
X93357142Y-62452380D02*
X93023809Y-61976190D01*
X92785714Y-62452380D02*
X92785714Y-61452380D01*
X93166666Y-61452380D01*
X93261904Y-61500000D01*
X93309523Y-61547619D01*
X93357142Y-61642857D01*
X93357142Y-61785714D01*
X93309523Y-61880952D01*
X93261904Y-61928571D01*
X93166666Y-61976190D01*
X92785714Y-61976190D01*
X93690476Y-61452380D02*
X94357142Y-62452380D01*
X94357142Y-61452380D02*
X93690476Y-62452380D01*
X95261904Y-62452380D02*
X94690476Y-62452380D01*
X94976190Y-62452380D02*
X94976190Y-61452380D01*
X94880952Y-61595238D01*
X94785714Y-61690476D01*
X94690476Y-61738095D01*
X92761904Y-65952380D02*
X93333333Y-65952380D01*
X93047619Y-66952380D02*
X93047619Y-65952380D01*
X93571428Y-65952380D02*
X94238095Y-66952380D01*
X94238095Y-65952380D02*
X93571428Y-66952380D01*
X95142857Y-66952380D02*
X94571428Y-66952380D01*
X94857142Y-66952380D02*
X94857142Y-65952380D01*
X94761904Y-66095238D01*
X94666666Y-66190476D01*
X94571428Y-66238095D01*
X88511904Y-50702380D02*
X88702380Y-50702380D01*
X88797619Y-50750000D01*
X88892857Y-50845238D01*
X88940476Y-51035714D01*
X88940476Y-51369047D01*
X88892857Y-51559523D01*
X88797619Y-51654761D01*
X88702380Y-51702380D01*
X88511904Y-51702380D01*
X88416666Y-51654761D01*
X88321428Y-51559523D01*
X88273809Y-51369047D01*
X88273809Y-51035714D01*
X88321428Y-50845238D01*
X88416666Y-50750000D01*
X88511904Y-50702380D01*
X89369047Y-51178571D02*
X89702380Y-51178571D01*
X89845238Y-51702380D02*
X89369047Y-51702380D01*
X89369047Y-50702380D01*
X89845238Y-50702380D01*
X90273809Y-51702380D02*
X90273809Y-50702380D01*
X90654761Y-50702380D01*
X90750000Y-50750000D01*
X90797619Y-50797619D01*
X90845238Y-50892857D01*
X90845238Y-51035714D01*
X90797619Y-51130952D01*
X90750000Y-51178571D01*
X90654761Y-51226190D01*
X90273809Y-51226190D01*
X91273809Y-51321428D02*
X92035714Y-51321428D01*
X92464285Y-50797619D02*
X92511904Y-50750000D01*
X92607142Y-50702380D01*
X92845238Y-50702380D01*
X92940476Y-50750000D01*
X92988095Y-50797619D01*
X93035714Y-50892857D01*
X93035714Y-50988095D01*
X92988095Y-51130952D01*
X92416666Y-51702380D01*
X93035714Y-51702380D01*
X93464285Y-51321428D02*
X94226190Y-51321428D01*
X94892857Y-50702380D02*
X94988095Y-50702380D01*
X95083333Y-50750000D01*
X95130952Y-50797619D01*
X95178571Y-50892857D01*
X95226190Y-51083333D01*
X95226190Y-51321428D01*
X95178571Y-51511904D01*
X95130952Y-51607142D01*
X95083333Y-51654761D01*
X94988095Y-51702380D01*
X94892857Y-51702380D01*
X94797619Y-51654761D01*
X94750000Y-51607142D01*
X94702380Y-51511904D01*
X94654761Y-51321428D01*
X94654761Y-51083333D01*
X94702380Y-50892857D01*
X94750000Y-50797619D01*
X94797619Y-50750000D01*
X94892857Y-50702380D01*
X95654761Y-51702380D02*
X95654761Y-50702380D01*
X96226190Y-51702380D01*
X96226190Y-50702380D01*
X96607142Y-50702380D02*
X97273809Y-50702380D01*
X96845238Y-51702380D01*
D12*
X114750000Y-60200000D03*
X114750000Y-61800000D03*
D13*
X119000000Y-67000000D03*
X117400000Y-67000000D03*
X119000000Y-59000000D03*
X117400000Y-59000000D03*
X119800000Y-61750000D03*
X118200000Y-61750000D03*
D12*
X97750000Y-56500000D03*
X97750000Y-58100000D03*
D10*
G36*
X85199504Y-59001204D02*
G01*
X85223773Y-59004804D01*
X85247571Y-59010765D01*
X85270671Y-59019030D01*
X85292849Y-59029520D01*
X85313893Y-59042133D01*
X85333598Y-59056747D01*
X85351777Y-59073223D01*
X85368253Y-59091402D01*
X85382867Y-59111107D01*
X85395480Y-59132151D01*
X85405970Y-59154329D01*
X85414235Y-59177429D01*
X85420196Y-59201227D01*
X85423796Y-59225496D01*
X85425000Y-59250000D01*
X85425000Y-60250000D01*
X85423796Y-60274504D01*
X85420196Y-60298773D01*
X85414235Y-60322571D01*
X85405970Y-60345671D01*
X85395480Y-60367849D01*
X85382867Y-60388893D01*
X85368253Y-60408598D01*
X85351777Y-60426777D01*
X85333598Y-60443253D01*
X85313893Y-60457867D01*
X85292849Y-60470480D01*
X85270671Y-60480970D01*
X85247571Y-60489235D01*
X85223773Y-60495196D01*
X85199504Y-60498796D01*
X85175000Y-60500000D01*
X83325000Y-60500000D01*
X83300496Y-60498796D01*
X83276227Y-60495196D01*
X83252429Y-60489235D01*
X83229329Y-60480970D01*
X83207151Y-60470480D01*
X83186107Y-60457867D01*
X83166402Y-60443253D01*
X83148223Y-60426777D01*
X83131747Y-60408598D01*
X83117133Y-60388893D01*
X83104520Y-60367849D01*
X83094030Y-60345671D01*
X83085765Y-60322571D01*
X83079804Y-60298773D01*
X83076204Y-60274504D01*
X83075000Y-60250000D01*
X83075000Y-59250000D01*
X83076204Y-59225496D01*
X83079804Y-59201227D01*
X83085765Y-59177429D01*
X83094030Y-59154329D01*
X83104520Y-59132151D01*
X83117133Y-59111107D01*
X83131747Y-59091402D01*
X83148223Y-59073223D01*
X83166402Y-59056747D01*
X83186107Y-59042133D01*
X83207151Y-59029520D01*
X83229329Y-59019030D01*
X83252429Y-59010765D01*
X83276227Y-59004804D01*
X83300496Y-59001204D01*
X83325000Y-59000000D01*
X85175000Y-59000000D01*
X85199504Y-59001204D01*
X85199504Y-59001204D01*
G37*
D14*
X84250000Y-59750000D03*
D10*
G36*
X85199504Y-62251204D02*
G01*
X85223773Y-62254804D01*
X85247571Y-62260765D01*
X85270671Y-62269030D01*
X85292849Y-62279520D01*
X85313893Y-62292133D01*
X85333598Y-62306747D01*
X85351777Y-62323223D01*
X85368253Y-62341402D01*
X85382867Y-62361107D01*
X85395480Y-62382151D01*
X85405970Y-62404329D01*
X85414235Y-62427429D01*
X85420196Y-62451227D01*
X85423796Y-62475496D01*
X85425000Y-62500000D01*
X85425000Y-63500000D01*
X85423796Y-63524504D01*
X85420196Y-63548773D01*
X85414235Y-63572571D01*
X85405970Y-63595671D01*
X85395480Y-63617849D01*
X85382867Y-63638893D01*
X85368253Y-63658598D01*
X85351777Y-63676777D01*
X85333598Y-63693253D01*
X85313893Y-63707867D01*
X85292849Y-63720480D01*
X85270671Y-63730970D01*
X85247571Y-63739235D01*
X85223773Y-63745196D01*
X85199504Y-63748796D01*
X85175000Y-63750000D01*
X83325000Y-63750000D01*
X83300496Y-63748796D01*
X83276227Y-63745196D01*
X83252429Y-63739235D01*
X83229329Y-63730970D01*
X83207151Y-63720480D01*
X83186107Y-63707867D01*
X83166402Y-63693253D01*
X83148223Y-63676777D01*
X83131747Y-63658598D01*
X83117133Y-63638893D01*
X83104520Y-63617849D01*
X83094030Y-63595671D01*
X83085765Y-63572571D01*
X83079804Y-63548773D01*
X83076204Y-63524504D01*
X83075000Y-63500000D01*
X83075000Y-62500000D01*
X83076204Y-62475496D01*
X83079804Y-62451227D01*
X83085765Y-62427429D01*
X83094030Y-62404329D01*
X83104520Y-62382151D01*
X83117133Y-62361107D01*
X83131747Y-62341402D01*
X83148223Y-62323223D01*
X83166402Y-62306747D01*
X83186107Y-62292133D01*
X83207151Y-62279520D01*
X83229329Y-62269030D01*
X83252429Y-62260765D01*
X83276227Y-62254804D01*
X83300496Y-62251204D01*
X83325000Y-62250000D01*
X85175000Y-62250000D01*
X85199504Y-62251204D01*
X85199504Y-62251204D01*
G37*
D14*
X84250000Y-63000000D03*
D13*
X90500000Y-73250000D03*
X88900000Y-73250000D03*
X90500000Y-57500000D03*
X88900000Y-57500000D03*
D15*
X103750000Y-56750000D03*
D16*
X113250000Y-56750000D03*
D15*
X103750000Y-53500000D03*
D16*
X113250000Y-53500000D03*
D15*
X81000000Y-63000000D03*
D16*
X81000000Y-53500000D03*
D17*
X122500000Y-72200000D03*
X122500000Y-64580000D03*
X122500000Y-69660000D03*
X122500000Y-62040000D03*
X122500000Y-67120000D03*
D18*
X122500000Y-59500000D03*
D17*
X77500000Y-69700000D03*
X77500000Y-62080000D03*
X77500000Y-67160000D03*
X77500000Y-59540000D03*
X77500000Y-64620000D03*
D18*
X77500000Y-57000000D03*
D17*
X77500000Y-72240000D03*
D19*
X91000000Y-54750000D03*
X88500000Y-55750000D03*
X88500000Y-53750000D03*
D20*
X111600000Y-62250000D03*
X109750000Y-62250000D03*
X109750000Y-60000000D03*
X111600000Y-60000000D03*
D21*
X115000000Y-72750000D03*
X112000000Y-72750000D03*
X115000000Y-70250000D03*
X112000000Y-70250000D03*
D20*
X119791853Y-64691852D03*
X117941853Y-64691852D03*
D22*
X95500000Y-58350000D03*
X95500000Y-56500000D03*
X84000000Y-55600000D03*
X84000000Y-53750000D03*
D20*
X88750000Y-71000000D03*
X90600000Y-71000000D03*
X88750000Y-68750000D03*
X90600000Y-68750000D03*
X88750000Y-66500000D03*
X90600000Y-66500000D03*
X88750000Y-64250000D03*
X90600000Y-64250000D03*
X88750000Y-62000000D03*
X90600000Y-62000000D03*
X88750000Y-59750000D03*
X90600000Y-59750000D03*
D23*
X108750000Y-72750000D03*
X106750000Y-72750000D03*
X108750000Y-70250000D03*
X106750000Y-70250000D03*
D24*
X103250000Y-61250000D03*
X102250000Y-61250000D03*
D25*
X101250000Y-60250000D03*
D24*
X100250000Y-61250000D03*
X99250000Y-61250000D03*
X103250000Y-69750000D03*
X102250000Y-69750000D03*
D25*
X101250000Y-70750000D03*
D24*
X100250000Y-69750000D03*
X99250000Y-69750000D03*
D26*
X119000000Y-54000000D03*
D27*
X113250000Y-62250000D03*
X80250000Y-71250000D03*
X80250000Y-73250000D03*
X81500000Y-71250000D03*
X81500000Y-73250000D03*
X76750000Y-54250000D03*
X78250000Y-54250000D03*
X78250000Y-53000000D03*
X76750000Y-53000000D03*
X105250000Y-71500000D03*
X86750000Y-73250000D03*
X86750000Y-57500000D03*
X104500000Y-59500000D03*
X84250000Y-58250000D03*
X97750000Y-59500000D03*
X96000000Y-64250000D03*
X96000000Y-62000000D03*
X100250000Y-56750000D03*
X92000000Y-62000000D03*
X92000000Y-68750000D03*
X84000000Y-52250000D03*
X86500000Y-54750000D03*
D28*
X77490000Y-57000000D02*
X77490001Y-54010000D01*
X111600000Y-62250000D02*
X113250000Y-62250000D01*
X114750000Y-61750000D02*
X114750000Y-62950000D01*
X114750000Y-63000000D02*
X114500000Y-63250000D01*
X114500000Y-63250000D02*
X113500000Y-63250000D01*
X113250000Y-63000000D02*
X113250000Y-62250000D01*
X113500000Y-63250000D02*
X113250000Y-63000000D01*
X77500000Y-72240000D02*
X80490000Y-72240000D01*
X106750000Y-72750000D02*
X105500000Y-72750000D01*
X105500000Y-72750000D02*
X105250000Y-72500000D01*
X105250000Y-72500000D02*
X105250000Y-71500000D01*
X106750000Y-70250000D02*
X105500000Y-70250000D01*
X105250000Y-70500000D02*
X105250000Y-71500000D01*
X105500000Y-70250000D02*
X105250000Y-70500000D01*
X88900000Y-73250000D02*
X86750000Y-73250000D01*
X88900000Y-57500000D02*
X86750000Y-57500000D01*
X103250000Y-61250000D02*
X103250000Y-58500000D01*
X103250000Y-58500000D02*
X103500000Y-58250000D01*
X103500000Y-58250000D02*
X104250000Y-58250000D01*
X104250000Y-58250000D02*
X104500000Y-58500000D01*
X104500000Y-58500000D02*
X104500000Y-59500000D01*
X84250000Y-59750000D02*
X84250000Y-58250000D01*
X88500000Y-55750000D02*
X87250000Y-55750000D01*
X86750000Y-56250000D02*
X86750000Y-57500000D01*
X87250000Y-55750000D02*
X86750000Y-56250000D01*
X97750000Y-58100000D02*
X97750000Y-59500000D01*
X114750000Y-58000000D02*
X114500000Y-58250000D01*
X114750000Y-58250000D02*
X114750000Y-57750000D01*
X114750000Y-58250000D02*
X114500000Y-58250000D01*
X114750000Y-57750000D02*
X114750000Y-58000000D01*
X114750000Y-58750000D02*
X114750000Y-58500000D01*
X114750000Y-58500000D02*
X114500000Y-58250000D01*
X114750000Y-60200000D02*
X114750000Y-58750000D01*
X114750000Y-58750000D02*
X114750000Y-58250000D01*
X77500000Y-64500000D02*
X77500000Y-64750000D01*
X114750000Y-52000000D02*
X114750000Y-57750000D01*
X114250000Y-51500000D02*
X114750000Y-52000000D01*
X89915036Y-52502390D02*
X98747610Y-52502390D01*
X86500000Y-58750000D02*
X85500000Y-57750000D01*
X87252388Y-52502388D02*
X89915034Y-52502388D01*
X85500000Y-54254776D02*
X87252388Y-52502388D01*
X85500000Y-57750000D02*
X85500000Y-55250000D01*
X85500000Y-55250000D02*
X85500000Y-54254776D01*
X99250000Y-53004780D02*
X98747610Y-52502390D01*
X99250000Y-54750000D02*
X99250000Y-53004780D01*
X99250000Y-61250000D02*
X99250000Y-56000000D01*
X99250000Y-56000000D02*
X99250000Y-55250000D01*
X99250000Y-56000000D02*
X99250000Y-54750000D01*
X113750000Y-58250000D02*
X114500000Y-58250000D01*
X113250000Y-58750000D02*
X113750000Y-58250000D01*
X113250000Y-59750000D02*
X113250000Y-58750000D01*
X113000000Y-60000000D02*
X113250000Y-59750000D01*
X111600000Y-60000000D02*
X113000000Y-60000000D01*
X102250000Y-51500000D02*
X101250000Y-52500000D01*
X102250000Y-51500000D02*
X114250000Y-51500000D01*
X97750000Y-56500000D02*
X97750000Y-54000000D01*
X95500000Y-56500000D02*
X95500000Y-54000000D01*
X86500000Y-63000000D02*
X86500000Y-58750000D01*
X81000000Y-63000000D02*
X81000000Y-65250000D01*
X84250000Y-63000000D02*
X84250000Y-65000000D01*
X86500000Y-63250000D02*
X86500000Y-64000000D01*
X86500000Y-63000000D02*
X86500000Y-63250000D01*
X86500000Y-63250000D02*
X86500000Y-63750000D01*
X86500000Y-64000000D02*
X85500000Y-65000000D01*
X77500000Y-64620000D02*
X79370000Y-64620000D01*
X79370000Y-64620000D02*
X80000000Y-65250000D01*
D29*
X104000000Y-54850000D02*
X103750000Y-54600000D01*
X105236410Y-54850000D02*
X104000000Y-54850000D01*
X106000000Y-55613590D02*
X105236410Y-54850000D01*
X103750000Y-54600000D02*
X103750000Y-53500000D01*
X109750000Y-60000000D02*
X108250000Y-60000000D01*
X106000000Y-59363590D02*
X106000000Y-55613590D01*
X107750000Y-60500000D02*
X107136410Y-60500000D01*
X108250000Y-60000000D02*
X107750000Y-60500000D01*
X107136410Y-60500000D02*
X106000000Y-59363590D01*
X121040000Y-62040000D02*
X120750000Y-61750000D01*
X122500000Y-62040000D02*
X121040000Y-62040000D01*
X120750000Y-61750000D02*
X119750000Y-61750000D01*
X120000000Y-59000000D02*
X120750000Y-59750000D01*
X120750000Y-59750000D02*
X120750000Y-61750000D01*
X119000000Y-59000000D02*
X120000000Y-59000000D01*
X102250000Y-53750000D02*
X102500000Y-53500000D01*
X102250000Y-61250000D02*
X102250000Y-53750000D01*
X102500000Y-53500000D02*
X103750000Y-53500000D01*
X102250000Y-69750000D02*
X102250000Y-70500000D01*
X100500000Y-73250000D02*
X102000000Y-73250000D01*
X102000000Y-73250000D02*
X102250000Y-73000000D01*
X100250000Y-72250000D02*
X100250000Y-73000000D01*
X100250000Y-70250000D02*
X100250000Y-72250000D01*
X102250000Y-69750000D02*
X102250000Y-73000000D01*
X100250000Y-73000000D02*
X100500000Y-73250000D01*
X100250000Y-73000000D02*
X100000000Y-73250000D01*
X100000000Y-73250000D02*
X98750000Y-73250000D01*
X98750000Y-73250000D02*
X96750000Y-73250000D01*
X96750000Y-73250000D02*
X96250000Y-72750000D01*
X100000000Y-73250000D02*
X100500000Y-73250000D01*
X96250000Y-72750000D02*
X96250000Y-65000000D01*
X96250000Y-64500000D02*
X96000000Y-64250000D01*
X96250000Y-65000000D02*
X96250000Y-64500000D01*
X91000000Y-54750000D02*
X93250000Y-54750000D01*
X93250000Y-54750000D02*
X93750000Y-55250000D01*
X93750000Y-55250000D02*
X93750000Y-60000000D01*
X93750000Y-60000000D02*
X94000000Y-60250000D01*
X94000000Y-60250000D02*
X95250000Y-60250000D01*
X95250000Y-60250000D02*
X95500000Y-60000000D01*
X95500000Y-60000000D02*
X95500000Y-58500000D01*
X95500000Y-61500000D02*
X96000000Y-62000000D01*
X95500000Y-60500000D02*
X95500000Y-61500000D01*
X95250000Y-60250000D02*
X95500000Y-60500000D01*
X95500000Y-60500000D02*
X95500000Y-60000000D01*
X117091853Y-64691852D02*
X117000000Y-64599999D01*
X117941853Y-64691852D02*
X117091853Y-64691852D01*
X117000000Y-64599999D02*
X117000000Y-62000000D01*
X117000000Y-62000000D02*
X117250000Y-61750000D01*
X117250000Y-61750000D02*
X118000000Y-61750000D01*
D28*
X117400000Y-59000000D02*
X116250000Y-59000000D01*
X116250000Y-59000000D02*
X116000000Y-59250000D01*
X116000000Y-59250000D02*
X116000000Y-66750000D01*
X116000000Y-66250000D02*
X116000000Y-66750000D01*
X116000000Y-66750000D02*
X116250000Y-67000000D01*
X116250000Y-67000000D02*
X117250000Y-67000000D01*
X116250000Y-67000000D02*
X116000000Y-67250000D01*
X116000000Y-66750000D02*
X116000000Y-67250000D01*
X118813186Y-69500000D02*
X121193186Y-67120000D01*
X117000000Y-69500000D02*
X118813186Y-69500000D01*
X121193186Y-67120000D02*
X122500000Y-67120000D01*
X116000000Y-68500000D02*
X117000000Y-69500000D01*
X116925000Y-69500000D02*
X117000000Y-69500000D01*
X116000000Y-68575000D02*
X116925000Y-69500000D01*
X116000000Y-67250000D02*
X116000000Y-67500000D01*
X116000000Y-68000000D02*
X116000000Y-68575000D01*
X116000000Y-68000000D02*
X116000000Y-68500000D01*
X116175000Y-70250000D02*
X116925000Y-69500000D01*
X115000000Y-70250000D02*
X116175000Y-70250000D01*
X116000000Y-67250000D02*
X116000000Y-68000000D01*
D29*
X122500000Y-64580000D02*
X120920000Y-64580000D01*
X120920000Y-64580000D02*
X120750000Y-64750000D01*
X120750000Y-64750000D02*
X119750000Y-64750000D01*
X103750000Y-55750000D02*
X103750000Y-56750000D01*
X104000000Y-55500000D02*
X103750000Y-55750000D01*
X105250000Y-55500000D02*
X104000000Y-55500000D01*
X108250000Y-62250000D02*
X105500000Y-59500000D01*
X105500000Y-55750000D02*
X105250000Y-55500000D01*
X105500000Y-59500000D02*
X105500000Y-55750000D01*
X109750000Y-62250000D02*
X108250000Y-62250000D01*
X100250000Y-61250000D02*
X100250000Y-56750000D01*
X120000000Y-67000000D02*
X119000000Y-67000000D01*
X120750000Y-66250000D02*
X120000000Y-67000000D01*
X120750000Y-65500000D02*
X120750000Y-66250000D01*
X120750000Y-65500000D02*
X120750000Y-64750000D01*
X90600000Y-66500000D02*
X91750000Y-66500000D01*
X91750000Y-66500000D02*
X92000000Y-66250000D01*
X92000000Y-64500000D02*
X91750000Y-64250000D01*
X90600000Y-64250000D02*
X91750000Y-64250000D01*
X92000000Y-65250000D02*
X92250000Y-65500000D01*
X92250000Y-65500000D02*
X92000000Y-65500000D01*
X92000000Y-65500000D02*
X92000000Y-65250000D01*
X92000000Y-65250000D02*
X92000000Y-64500000D01*
X92000000Y-65750000D02*
X92250000Y-65500000D01*
X92000000Y-66000000D02*
X92000000Y-65750000D01*
X92000000Y-66250000D02*
X92000000Y-66000000D01*
X92000000Y-66000000D02*
X92000000Y-65500000D01*
X95750000Y-65750000D02*
X95500000Y-65500000D01*
X95750000Y-73000000D02*
X95750000Y-65750000D01*
X96500000Y-73750000D02*
X95750000Y-73000000D01*
X102750000Y-73750000D02*
X96500000Y-73750000D01*
X95500000Y-65500000D02*
X92250000Y-65500000D01*
X103250000Y-73250000D02*
X102750000Y-73750000D01*
X103250000Y-69750000D02*
X103250000Y-73250000D01*
X92000000Y-62000000D02*
X90750000Y-62000000D01*
X90600000Y-68750000D02*
X92000000Y-68750000D01*
X92000000Y-62750000D02*
X92000000Y-62000000D01*
X96500000Y-63000000D02*
X92250000Y-63000000D01*
X96750000Y-63250000D02*
X96500000Y-63000000D01*
X97000000Y-72750000D02*
X96750000Y-72500000D01*
X92250000Y-63000000D02*
X92000000Y-62750000D01*
X99000000Y-72750000D02*
X97000000Y-72750000D01*
X99250000Y-72500000D02*
X99000000Y-72750000D01*
X96750000Y-72500000D02*
X96750000Y-63250000D01*
X99250000Y-69750000D02*
X99250000Y-72500000D01*
X108750000Y-70250000D02*
X112000000Y-70250000D01*
X112000000Y-72750000D02*
X108750000Y-72750000D01*
X88750000Y-59750000D02*
X87500000Y-59750000D01*
X87500000Y-59750000D02*
X87250000Y-60000000D01*
X87250000Y-60000000D02*
X87250000Y-61750000D01*
X87250000Y-61750000D02*
X87500000Y-62000000D01*
X87500000Y-62000000D02*
X88750000Y-62000000D01*
X87500000Y-62000000D02*
X87250000Y-62250000D01*
X87250000Y-62250000D02*
X87250000Y-62750000D01*
X87250000Y-62750000D02*
X87250000Y-64000000D01*
X87250000Y-64000000D02*
X87500000Y-64250000D01*
X87500000Y-64250000D02*
X88750000Y-64250000D01*
X87250000Y-61750000D02*
X87250000Y-62250000D01*
X87250000Y-64000000D02*
X87250000Y-64500000D01*
X87500000Y-64250000D02*
X87250000Y-64500000D01*
X81750000Y-67250000D02*
X85250000Y-67250000D01*
X81750000Y-67250000D02*
X77500000Y-67250000D01*
X87250000Y-65250000D02*
X87250000Y-64500000D01*
X85250000Y-67250000D02*
X87250000Y-65250000D01*
X90500000Y-57500000D02*
X91300000Y-57500000D01*
X91300000Y-57500000D02*
X91500000Y-57500000D01*
X91500000Y-57500000D02*
X91750000Y-57750000D01*
X91750000Y-57750000D02*
X91750000Y-59500000D01*
X91750000Y-59500000D02*
X91500000Y-59750000D01*
X91500000Y-59750000D02*
X90750000Y-59750000D01*
X88750000Y-66500000D02*
X87500000Y-66500000D01*
X87500000Y-66500000D02*
X87250000Y-66750000D01*
X87250000Y-68500000D02*
X87500000Y-68750000D01*
X87500000Y-68750000D02*
X88750000Y-68750000D01*
X87500000Y-68750000D02*
X87250000Y-69000000D01*
X87250000Y-69000000D02*
X87250000Y-70000000D01*
X87250000Y-70000000D02*
X87250000Y-70750000D01*
X87250000Y-70750000D02*
X87500000Y-71000000D01*
X87500000Y-71000000D02*
X88750000Y-71000000D01*
X87250000Y-68000000D02*
X87250000Y-68500000D01*
X87250000Y-66750000D02*
X87250000Y-67250000D01*
X87250000Y-67250000D02*
X87250000Y-67400000D01*
X87250000Y-67250000D02*
X87250000Y-68000000D01*
X86150000Y-68750000D02*
X85200000Y-69700000D01*
X77500000Y-69700000D02*
X85200000Y-69700000D01*
X87250000Y-68500000D02*
X87250000Y-68750000D01*
X87250000Y-68750000D02*
X87250000Y-69000000D01*
X87250000Y-68500000D02*
X87000000Y-68750000D01*
X87000000Y-68750000D02*
X86150000Y-68750000D01*
X87250000Y-68750000D02*
X87000000Y-68750000D01*
X87250000Y-69000000D02*
X87000000Y-68750000D01*
X91750000Y-71250000D02*
X91500000Y-71000000D01*
X91500000Y-71000000D02*
X90750000Y-71000000D01*
X91750000Y-73000000D02*
X91750000Y-71250000D01*
X91500000Y-73250000D02*
X91750000Y-73000000D01*
X90500000Y-73250000D02*
X91500000Y-73250000D01*
X78960000Y-59540000D02*
X77500000Y-59540000D01*
X79250000Y-59830000D02*
X78960000Y-59540000D01*
X79250000Y-61750000D02*
X79250000Y-59830000D01*
X78920000Y-62080000D02*
X79250000Y-61750000D01*
X77500000Y-62080000D02*
X78920000Y-62080000D01*
X79250000Y-59830000D02*
X79250000Y-59250000D01*
X79250000Y-59250000D02*
X78960000Y-59540000D01*
X84000000Y-57000000D02*
X84000000Y-56450000D01*
X83250000Y-57750000D02*
X84000000Y-57000000D01*
X80750000Y-57750000D02*
X83250000Y-57750000D01*
X84000000Y-56450000D02*
X84000000Y-55600000D01*
X79250000Y-59250000D02*
X80750000Y-57750000D01*
X87500000Y-53750000D02*
X86500000Y-54750000D01*
X88500000Y-53750000D02*
X87500000Y-53750000D01*
X84000000Y-53750000D02*
X84000000Y-52250000D01*
D28*
X121000000Y-69750000D02*
X122500000Y-69750000D01*
X118000000Y-72750000D02*
X121000000Y-69750000D01*
X115000000Y-72750000D02*
X118000000Y-72750000D01*
D29*
X113250000Y-53500000D02*
X113250000Y-56750000D01*
D11*
G36*
X82150000Y-73900000D02*
G01*
X79600000Y-73900000D01*
X79600000Y-73294036D01*
X79605322Y-73240000D01*
X79600000Y-72540000D01*
X79600000Y-71940000D01*
X79605322Y-71240000D01*
X79600000Y-71185964D01*
X79600000Y-70600000D01*
X82150000Y-70600000D01*
X82150000Y-73900000D01*
X82150000Y-73900000D01*
G37*
X82150000Y-73900000D02*
X79600000Y-73900000D01*
X79600000Y-73294036D01*
X79605322Y-73240000D01*
X79600000Y-72540000D01*
X79600000Y-71940000D01*
X79605322Y-71240000D01*
X79600000Y-71185964D01*
X79600000Y-70600000D01*
X82150000Y-70600000D01*
X82150000Y-73900000D01*
G36*
X78900001Y-52350002D02*
G01*
X78900000Y-54900001D01*
X77632057Y-54900001D01*
X77557858Y-54890632D01*
X77425665Y-54900000D01*
X76100000Y-54900000D01*
X76100001Y-52349999D01*
X78900001Y-52350002D01*
X78900001Y-52350002D01*
G37*
X78900001Y-52350002D02*
X78900000Y-54900001D01*
X77632057Y-54900001D01*
X77557858Y-54890632D01*
X77425665Y-54900000D01*
X76100000Y-54900000D01*
X76100001Y-52349999D01*
X78900001Y-52350002D01*
G36*
X101400000Y-54400000D02*
G01*
X93925304Y-54400000D01*
X93787832Y-54262528D01*
X93765132Y-54234868D01*
X93654737Y-54144269D01*
X93528788Y-54076947D01*
X93392125Y-54035491D01*
X93285607Y-54025000D01*
X93285597Y-54025000D01*
X93250000Y-54021494D01*
X93214403Y-54025000D01*
X92006617Y-54025000D01*
X92001296Y-54015045D01*
X91926317Y-53923683D01*
X91850000Y-53861051D01*
X91850000Y-52780000D01*
X98116667Y-52780000D01*
X98116667Y-52350000D01*
X101400000Y-52350000D01*
X101400000Y-54400000D01*
X101400000Y-54400000D01*
G37*
X101400000Y-54400000D02*
X93925304Y-54400000D01*
X93787832Y-54262528D01*
X93765132Y-54234868D01*
X93654737Y-54144269D01*
X93528788Y-54076947D01*
X93392125Y-54035491D01*
X93285607Y-54025000D01*
X93285597Y-54025000D01*
X93250000Y-54021494D01*
X93214403Y-54025000D01*
X92006617Y-54025000D01*
X92001296Y-54015045D01*
X91926317Y-53923683D01*
X91850000Y-53861051D01*
X91850000Y-52780000D01*
X98116667Y-52780000D01*
X98116667Y-52350000D01*
X101400000Y-52350000D01*
X101400000Y-54400000D01*
G36*
X81025000Y-64675000D02*
G01*
X81300000Y-64950000D01*
X81850000Y-64955322D01*
X82065638Y-64934084D01*
X82272988Y-64871184D01*
X82464084Y-64769042D01*
X82536625Y-64709509D01*
X82652012Y-64771184D01*
X82859362Y-64834084D01*
X83075000Y-64855322D01*
X83950000Y-64850000D01*
X84225000Y-64575000D01*
X84225000Y-64350000D01*
X84275000Y-64350000D01*
X84275000Y-64575000D01*
X84550000Y-64850000D01*
X85425000Y-64855322D01*
X85640638Y-64834084D01*
X85847988Y-64771184D01*
X85900000Y-64743383D01*
X85900000Y-65574695D01*
X84949696Y-66525000D01*
X79350000Y-66525000D01*
X79350000Y-66318212D01*
X79419042Y-66234084D01*
X79521184Y-66042988D01*
X79584084Y-65835638D01*
X79605322Y-65620000D01*
X79600000Y-64920000D01*
X79350000Y-64670000D01*
X79350000Y-64645002D01*
X79384773Y-64645002D01*
X79535916Y-64769042D01*
X79727012Y-64871184D01*
X79934362Y-64934084D01*
X80150000Y-64955322D01*
X80700000Y-64950000D01*
X80975000Y-64675000D01*
X80975000Y-64350000D01*
X81025000Y-64350000D01*
X81025000Y-64675000D01*
X81025000Y-64675000D01*
G37*
X81025000Y-64675000D02*
X81300000Y-64950000D01*
X81850000Y-64955322D01*
X82065638Y-64934084D01*
X82272988Y-64871184D01*
X82464084Y-64769042D01*
X82536625Y-64709509D01*
X82652012Y-64771184D01*
X82859362Y-64834084D01*
X83075000Y-64855322D01*
X83950000Y-64850000D01*
X84225000Y-64575000D01*
X84225000Y-64350000D01*
X84275000Y-64350000D01*
X84275000Y-64575000D01*
X84550000Y-64850000D01*
X85425000Y-64855322D01*
X85640638Y-64834084D01*
X85847988Y-64771184D01*
X85900000Y-64743383D01*
X85900000Y-65574695D01*
X84949696Y-66525000D01*
X79350000Y-66525000D01*
X79350000Y-66318212D01*
X79419042Y-66234084D01*
X79521184Y-66042988D01*
X79584084Y-65835638D01*
X79605322Y-65620000D01*
X79600000Y-64920000D01*
X79350000Y-64670000D01*
X79350000Y-64645002D01*
X79384773Y-64645002D01*
X79535916Y-64769042D01*
X79727012Y-64871184D01*
X79934362Y-64934084D01*
X80150000Y-64955322D01*
X80700000Y-64950000D01*
X80975000Y-64675000D01*
X80975000Y-64350000D01*
X81025000Y-64350000D01*
X81025000Y-64675000D01*
M02*
